<?xml version="1.0" encoding="UTF-8"?>
<svg version="1.1" xmlns="http://www.w3.org/2000/svg" viewBox="144 136 752 752" preserveAspectRatio="xMidYMid meet">

<path d="M0 0 C2.72930992 0.81918214 5.48249801 1.53261234 8.2421875 2.24169922 C11.50434172 3.12192441 14.59911326 4.17521879 17.7265625 5.45263672 C18.60078857 5.8076123 19.47501465 6.16258789 20.37573242 6.52832031 C21.2597876 6.88748535 22.14384277 7.24665039 23.0546875 7.61669922 C24.69094991 8.26368784 26.32766513 8.90953254 27.96484375 9.55419922 C48.42793308 17.7017789 68.38584161 26.88173456 87.0546875 38.61669922 C88.08118408 39.25575195 88.08118408 39.25575195 89.12841797 39.90771484 C99.10716742 46.1429899 108.72414908 52.8321623 118.2265625 59.76904297 C118.89751953 60.2548584 119.56847656 60.74067383 120.25976562 61.24121094 C122.0546875 62.61669922 122.0546875 62.61669922 124.5703125 65.05810547 C127.57219887 66.94136437 129.43977917 66.77830723 132.87255859 66.13671875 C136.74203721 65.2145897 140.56041711 64.21082968 144.3671875 63.05419922 C145.66499146 62.66047119 145.66499146 62.66047119 146.98901367 62.25878906 C172.95234732 54.14068292 195.50064432 41.50031807 215.0546875 22.61669922 C216.22257813 21.52615234 216.22257813 21.52615234 217.4140625 20.41357422 C226.59033576 11.62778067 234.07674826 1.23070672 241.30078125 -9.17626953 C243.07850166 -11.41326737 244.61228355 -12.90748527 247.0546875 -14.38330078 C252.40927327 -14.89326133 255.73168574 -14.86571886 260.0546875 -11.38330078 C267.62549718 -3.16405076 266.41772737 9.58812351 266.3671875 20.17919922 C266.36299805 21.39430176 266.35880859 22.6094043 266.35449219 23.86132812 C266.16338401 39.2861981 263.97709686 53.96707136 259.0546875 68.61669922 C258.64605469 69.86451172 258.23742187 71.11232422 257.81640625 72.39794922 C250.79880307 92.89667057 238.89367416 110.03688569 224.0546875 125.61669922 C223.16330078 126.58736328 223.16330078 126.58736328 222.25390625 127.57763672 C216.064967 134.11979086 208.5292477 139.63365909 201.0546875 144.61669922 C202.464931 147.72201373 204.16643663 150.08259594 206.3671875 152.67919922 C221.56404031 171.46151639 233.37624637 192.10502362 242.0546875 214.61669922 C242.38976318 215.48093506 242.72483887 216.3451709 243.07006836 217.2355957 C245.49471246 223.67139356 247.32012827 230.10746895 248.8671875 236.80419922 C249.11436523 237.85212646 249.36154297 238.90005371 249.61621094 239.97973633 C252.08945784 250.56169987 254.40483656 261.17998665 256.69458008 271.80297852 C258.30447151 279.34620763 258.30447151 279.34620763 260.12890625 286.83935547 C263.50809058 300.62699785 265.43041047 314.75908803 265.87890625 328.93701172 C265.96416447 332.46697157 265.96416447 332.46697157 266.55297852 335.29736328 C267.16670654 339.35782373 267.2352744 343.30527504 267.2578125 347.40576172 C267.26826599 348.67776428 267.26826599 348.67776428 267.27893066 349.97546387 C267.29637109 352.73092591 267.30266169 355.4861841 267.3046875 358.24169922 C267.30569458 359.18398376 267.30670166 360.12626831 267.30773926 361.09710693 C267.29087502 384.45755299 264.66940609 407.07300715 260.51025391 430.05566406 C260.10763577 432.31904253 259.73540927 434.58398505 259.37890625 436.85498047 C257.54713233 447.85686185 254.26820542 458.32742692 250.89282227 468.94018555 C250.10028189 471.47109732 249.35308093 474.01137493 248.61328125 476.55810547 C242.79213378 496.02076859 234.19490361 514.52778887 225.0546875 532.61669922 C224.67570313 533.37047852 224.29671875 534.12425781 223.90625 534.90087891 C206.31371942 569.63951306 181.09846276 600.7402631 153.6796875 628.17919922 C152.81085937 629.06027344 151.94203125 629.94134766 151.046875 630.84912109 C145.03120714 636.87813732 138.70678359 642.30616287 132.0546875 647.61669922 C131.02729799 648.48027849 130.00389314 649.34867417 128.98828125 650.22607422 C80.34019879 691.94618249 19.42751053 717.38903929 -42.9453125 729.61669922 C-44.23260254 729.87193359 -44.23260254 729.87193359 -45.54589844 730.13232422 C-66.88136058 734.28312272 -88.57758536 735.0035568 -110.2578125 734.92919922 C-111.37017273 734.9273764 -112.48253296 734.92555359 -113.62860107 734.92367554 C-139.0561389 734.85369316 -163.11416629 732.1949677 -187.9453125 726.61669922 C-189.23397217 726.33503906 -190.52263184 726.05337891 -191.8503418 725.76318359 C-202.28624381 723.43673484 -212.38444547 720.41899862 -222.5078125 716.99169922 C-223.67561249 716.59919479 -223.67561249 716.59919479 -224.86700439 716.19876099 C-287.79297123 694.99528908 -346.79070664 657.63422055 -389.9453125 606.61669922 C-391.10546875 605.29025391 -391.10546875 605.29025391 -392.2890625 603.93701172 C-421.04561922 570.85587589 -442.65949918 533.20362237 -458.9453125 492.61669922 C-459.43668701 491.39950195 -459.43668701 491.39950195 -459.93798828 490.15771484 C-463.21080983 481.98557862 -465.86867091 473.76365037 -468.01953125 465.22216797 C-468.87829379 461.87770458 -469.86444549 458.6027346 -470.8828125 455.30419922 C-473.7089056 445.39624929 -475.57052934 435.29206636 -477.32958984 425.14746094 C-477.72395493 422.88603833 -478.13189282 420.62691518 -478.55712891 418.37109375 C-482.14192541 398.98260863 -482.3175782 379.65163067 -482.3203125 359.99169922 C-482.32221588 358.69887024 -482.32411926 357.40604126 -482.32608032 356.07403564 C-482.32271988 335.88932375 -481.39303775 316.08359984 -477.8828125 296.17919922 C-477.6780127 295.00035156 -477.47321289 293.82150391 -477.26220703 292.60693359 C-474.60209836 277.91875368 -471.03684756 263.42566549 -467.48007202 248.93339539 C-466.39072433 244.48874877 -465.35575584 240.03558857 -464.35546875 235.56982422 C-461.21774264 221.91601332 -455.96378155 209.17541822 -449.9453125 196.55419922 C-449.4594165 195.53229492 -448.97352051 194.51039063 -448.47290039 193.45751953 C-443.55732303 183.38881816 -437.48160198 174.17748909 -431.0078125 165.05419922 C-430.49710205 164.32894043 -429.9863916 163.60368164 -429.46020508 162.85644531 C-425.91631962 157.86438293 -422.20328488 153.1138572 -418.17578125 148.49951172 C-417.76972656 147.87818359 -417.36367188 147.25685547 -416.9453125 146.61669922 C-418.23648829 142.74317184 -419.87498634 142.01298868 -423.1953125 139.67919922 C-438.02923605 128.9383231 -449.93756373 115.90984707 -459.9453125 100.61669922 C-460.54214844 99.71693359 -461.13898438 98.81716797 -461.75390625 97.89013672 C-472.12338406 81.27023464 -477.61221924 62.77646711 -480.9453125 43.61669922 C-481.24888672 41.94027344 -481.24888672 41.94027344 -481.55859375 40.22998047 C-483.07898439 26.02431039 -485.74347773 0.80215806 -476.9453125 -11.38330078 C-473.380605 -14.33691557 -470.35045438 -14.87968177 -465.85546875 -14.65283203 C-460.93204777 -13.95811619 -458.58411924 -11.09902255 -455.6328125 -7.38330078 C-453.77392766 -4.91273161 -451.96959161 -2.41840706 -450.2109375 0.12451172 C-437.6513294 18.10514725 -421.53620998 33.10571687 -402.9453125 44.61669922 C-401.83542969 45.31666016 -400.72554688 46.01662109 -399.58203125 46.73779297 C-386.62703829 54.54732457 -372.48957896 59.69621364 -358.0703125 64.11669922 C-357.24450684 64.37209473 -356.41870117 64.62749023 -355.56787109 64.890625 C-349.34136257 66.78927282 -349.34136257 66.78927282 -342.9453125 66.61669922 C-339.98812935 64.80316939 -337.40307168 62.60265248 -334.7578125 60.36669922 C-325.60887609 52.94798009 -316.02276168 46.68864846 -305.9453125 40.61669922 C-305.24615723 40.189375 -304.54700195 39.76205078 -303.82666016 39.32177734 C-258.44853746 11.59971239 -207.00027397 -7.55743614 -153.9453125 -13.38330078 C-153.2140918 -13.47208496 -152.48287109 -13.56086914 -151.72949219 -13.65234375 C-101.17566781 -19.63128628 -48.62571459 -14.90108944 0 0 Z " fill="#040404" transform="translate(627.9453125,152.38330078125)"/>
<path d="M0 0 C3.30050178 1.65025089 3.85630213 5.32874026 5.125 8.625 C14.87875459 32.98124079 30.12962972 52.97410202 48 72 C48.62003906 72.68578125 49.24007812 73.3715625 49.87890625 74.078125 C74.8097046 100.62635769 112.62092315 118.25842402 148 125 C148.72203613 125.14808105 149.44407227 125.29616211 150.18798828 125.44873047 C174.70035225 130.38307199 199.61791504 128.8045506 224 124 C225.35714111 123.7510498 225.35714111 123.7510498 226.74169922 123.49707031 C247.81660442 119.57561163 267.3839561 110.79643106 285.59179688 99.62084961 C286.39552734 99.13237549 287.19925781 98.64390137 288.02734375 98.140625 C288.72593506 97.70266602 289.42452637 97.26470703 290.14428711 96.81347656 C292 96 292 96 295 97 C296.69140625 99.59765625 296.69140625 99.59765625 298.5625 103.0625 C299.28105523 104.36482948 300.00251928 105.66555737 300.7265625 106.96484375 C301.28972168 107.97587158 301.28972168 107.97587158 301.86425781 109.00732422 C303.63003517 112.10540565 305.52817479 115.1139722 307.4375 118.125 C311.82149768 125.07080014 316.11401836 132.07068125 320.37808228 139.09051514 C321.12481901 140.31984899 321.87203031 141.54889471 322.61972046 142.77764893 C326.18225245 148.63373482 329.73370131 154.49279147 333.140625 160.44140625 C333.59115234 161.22588135 334.04167969 162.01035645 334.50585938 162.81860352 C335.30294313 164.21615912 336.09153115 165.61861543 336.86914062 167.02709961 C339.07381415 170.89703791 341.22162491 173.60252405 345 176 C347.2169194 176.62081001 347.2169194 176.62081001 349.4375 176.5 C350.15808594 176.5103125 350.87867188 176.520625 351.62109375 176.53125 C355.97731165 175.55843287 358.820921 173.60800061 361.42211914 170.06054688 C362.95863819 167.57657427 364.39430082 165.05339296 365.8125 162.5 C366.95629881 160.50273973 368.10223734 158.50670375 369.25 156.51171875 C369.85585938 155.45259277 370.46171875 154.3934668 371.0859375 153.30224609 C374.05788605 148.17487669 377.14888903 143.12079124 380.24084473 138.06530762 C388.96701434 123.79271741 397.50566028 109.41149227 406 95 C409.84947239 96.48254534 413.04614481 98.2345681 416.5 100.5 C454.67472979 124.67789416 500.62945365 132.44527827 545 126 C545.67401855 125.90348145 546.34803711 125.80696289 547.04248047 125.70751953 C595.97637135 118.37646429 641.96821376 89.90102217 671.48388672 50.34375 C682.83246067 34.74433563 691.94411459 17.98248524 699 0 C699.33 0 699.66 0 700 0 C700.91652123 36.40704343 697.77151519 73.38591708 685.67724609 108.01660156 C684.91912981 110.23683828 684.21782891 112.4711825 683.51953125 114.7109375 C668.48116995 162.36294349 642.75089794 205.29511285 609 242 C607.56238617 243.6248993 606.12488903 245.24990184 604.6875 246.875 C596.85095953 255.55652397 588.73149573 263.65309856 579.5625 270.93359375 C577.22543476 272.81820886 575.01848019 274.77781751 572.8125 276.8125 C541.70012666 304.70826434 502.94320107 323.86823945 464 338 C463.09040527 338.33515625 462.18081055 338.6703125 461.24365234 339.015625 C446.46864506 344.41753813 431.40705964 347.90154079 416 351 C415.00226563 351.20254395 414.00453125 351.40508789 412.9765625 351.61376953 C410.17469093 352.1751879 407.37005856 352.71780845 404.5625 353.25 C403.78527588 353.40106201 403.00805176 353.55212402 402.20727539 353.70776367 C384.97225046 356.82812507 367.59812593 357.40710941 350.125 357.375 C349.05450409 357.37478851 347.98400818 357.37457703 346.881073 357.37435913 C329.2367902 357.33971775 312.38133411 356.17578474 295 353 C292.76314587 352.62165582 290.5261664 352.24405196 288.2890625 351.8671875 C257.93843131 346.5647537 229.08677571 336.85000888 201.1875 323.875 C200.57532623 323.59139618 199.96315247 323.30779236 199.33242798 323.01559448 C186.89229436 317.22131512 175.07822193 310.48187612 163.5 303.125 C162.69522217 302.61380615 161.89044434 302.1026123 161.0612793 301.57592773 C144.50036324 290.97489995 129.11283439 278.97612412 114.73828125 265.5546875 C112.12978075 263.12107933 109.48009136 260.74346053 106.8125 258.375 C99.37175843 251.68548715 92.48153261 244.61679087 86 237 C85.21238281 236.10152344 84.42476563 235.20304688 83.61328125 234.27734375 C66.54234414 214.66853369 52.22700928 192.9134462 40 170 C39.57895996 169.21915039 39.15791992 168.43830078 38.72412109 167.63378906 C30.88101662 152.96698324 24.82967817 137.84007466 19.17285156 122.23022461 C18.42562353 120.17223666 17.66822694 118.11789214 16.89746094 116.06860352 C14.58668592 109.89289909 12.70494558 103.71339066 11.125 97.3125 C10.87524414 96.30429199 10.62548828 95.29608398 10.36816406 94.25732422 C7.00110041 80.28674238 4.40463592 66.16374568 2 52 C1.85014648 51.13246094 1.70029297 50.26492188 1.54589844 49.37109375 C-1.13550389 33.15397246 -0.18332608 16.3780701 0 0 Z " fill="#FEFEFE" transform="translate(170,506)"/>
<path d="M0 0 C4.23236837 3.47994733 8.08441971 7.10409249 11.875 11.0625 C29.41062531 28.8898228 51.70985784 41.34118898 75 50 C75.89493164 50.33483398 76.78986328 50.66966797 77.71191406 51.01464844 C99.80570904 59.14241757 122.61046197 63.36816064 145.75 67.25 C146.49527954 67.3750592 147.24055908 67.50011841 148.00842285 67.62896729 C157.1130711 69.14523385 166.21719009 70.45626396 175.38623047 71.51879883 C180.35421368 72.18032395 185.22385465 73.19408072 190.125 74.23046875 C192.78094323 74.75790909 195.38827722 75.22572192 198.0625 75.61328125 C217.9313205 78.507109 237.03082063 84.00669165 255 93 C255.98468262 93.48122314 255.98468262 93.48122314 256.98925781 93.97216797 C271.02866801 100.87271681 283.26000013 109.66354983 294.48486328 120.54052734 C296.0441812 122.04255805 297.62825952 123.51512659 299.21484375 124.98828125 C316.21692544 141.05100742 327.54661062 161.30731573 336.46337891 182.72729492 C338.69531436 187.983292 338.69531436 187.983292 342.515625 192.109375 C344.99232511 192.99724863 346.87494069 193.43287842 349.5 193.4375 C350.2321875 193.45683594 350.964375 193.47617187 351.71875 193.49609375 C355.13284887 192.75364417 356.56230894 191.52996959 359 189 C360.64410292 185.9163617 361.86813372 182.6945532 363.125 179.4375 C380.77172164 136.2641211 413.49550535 105.24335919 455.95458984 86.85058594 C481.42730466 76.25773103 510.38657421 73.52227831 537.43547058 69.40890503 C563.59775045 65.43464464 563.59775045 65.43464464 589.5 60.0625 C590.59038574 59.80726563 591.68077148 59.55203125 592.80419922 59.2890625 C601.06454202 57.31277456 609.03044974 54.95336811 617 52 C618.29769456 51.54419682 619.59589143 51.08982175 620.89453125 50.63671875 C630.66631866 47.1701511 639.85738352 42.87730317 649 38 C649.61117676 37.67773438 650.22235352 37.35546875 650.85205078 37.0234375 C663.11222501 30.50763332 673.61773046 22.44039399 683.78125 13.0078125 C685.32990697 11.60638701 686.93511428 10.26607698 688.578125 8.9765625 C690.76900564 7.18852121 692.47448869 5.43668235 694.25 3.25 C695.14662263 2.15001966 696.05793136 1.06131784 697 0 C697.33 0 697.66 0 698 0 C696.59918562 31.16811988 682.4786922 59.55683567 659.9765625 80.9375 C647.25029946 92.48199525 631.96036654 100.84553434 616 107 C615.20948242 107.31171143 614.41896484 107.62342285 613.60449219 107.94458008 C605.93043246 110.8679977 598.10391159 112.90710064 590.125 114.8125 C589.42279327 114.9816391 588.72058655 115.1507782 587.99710083 115.32504272 C565.44305331 120.73356091 542.62392375 125.32991061 519.56835938 127.94311523 C481.49337787 132.34278726 445.00277415 143.81396426 419.73828125 174.53417969 C401.96139882 197.13816942 392.81490591 222.93318995 392.6875 251.625 C392.68186035 252.82801758 392.6762207 254.03103516 392.67041016 255.27050781 C392.76687369 267.26141558 394.08983368 278.81771332 398 290.1875 C398.3005127 291.07042725 398.60102539 291.95335449 398.91064453 292.86303711 C403.98325065 307.15219401 411.20834028 320.40418187 421 332 C422.26263672 333.50626953 422.26263672 333.50626953 423.55078125 335.04296875 C440.92690339 355.16871901 465.24877322 367.47238889 491 373 C492.45599609 373.3403125 492.45599609 373.3403125 493.94140625 373.6875 C524.71693526 379.99144904 557.24719962 370.8658486 583.1875 354.1875 C610.74375761 334.99520134 627.0290184 308.08466963 634.81640625 275.59375 C640.78273374 241.88191355 632.41235096 209.39977644 613.6875 181.3125 C602.30473688 165.48485484 587.72821062 152.38548191 570 144 C572.85480898 142.09679402 574.22765799 141.58887219 577.48046875 140.95703125 C578.38571289 140.77390381 579.29095703 140.59077637 580.22363281 140.40209961 C581.20170898 140.20753174 582.17978516 140.01296387 583.1875 139.8125 C591.81551223 138.01785698 600.29316117 135.91773654 608.75 133.4375 C610.19282349 133.01658081 610.19282349 133.01658081 611.66479492 132.5871582 C617.42718061 130.86827183 623.02006002 128.90470634 628.59863281 126.65649414 C631.26127926 125.92857057 632.46568094 125.9650302 635 127 C636.97393974 128.78368048 638.72702843 130.53283754 640.5 132.5 C641.02045898 133.07242432 641.54091797 133.64484863 642.07714844 134.23461914 C663.09625938 157.91425719 676.92223916 186.93702747 683.51579285 217.74952698 C683.83934225 219.25330322 684.17264271 220.75501356 684.51551819 222.25450134 C685.79707977 228.13030086 686.29515465 233.66765968 686.265625 239.671875 C686.26849518 240.99919647 686.26849518 240.99919647 686.27142334 242.35333252 C686.27277411 244.21212043 686.26915584 246.07091814 686.26074219 247.9296875 C686.2500785 250.72938978 686.26064907 253.52844295 686.2734375 256.328125 C686.28165875 266.41307847 685.85937206 276.06203496 684 286 C683.85933105 286.78407227 683.71866211 287.56814453 683.57373047 288.37597656 C681.39015896 299.77341606 677.54966969 310.35990784 673 321 C672.70109863 321.7115625 672.40219727 322.423125 672.09423828 323.15625 C654.83501469 363.77936578 620.23244231 396.99026591 579.69238281 413.96630859 C569.03780731 418.24085937 558.25643802 421.73085337 547 424 C545.90993652 424.22429687 545.90993652 424.22429687 544.79785156 424.453125 C515.28827518 430.29212007 485.11911039 427.45806336 457 417 C455.82727539 416.5671167 455.82727539 416.5671167 454.63085938 416.12548828 C432.23941642 407.68991819 413.31257489 394.36317562 396 378 C395.11828125 377.18273437 394.2365625 376.36546875 393.328125 375.5234375 C378.83147914 361.64105629 368.57795036 344.42141257 359.60546875 326.609375 C357.94601676 323.91226081 356.74957801 322.54017716 354 321 C351.81675811 320.530281 351.81675811 320.530281 349.5625 320.625 C348.82128906 320.61726563 348.08007812 320.60953125 347.31640625 320.6015625 C344.08153886 321.15798151 342.57316254 321.88746532 340 324 C338.04514574 327.07805335 336.51266533 330.34032812 334.9375 333.625 C327.40834832 348.5984606 318.18275151 361.56602961 306.44824219 373.52099609 C305.03566937 374.96357299 303.6463739 376.42882755 302.2578125 377.89453125 C272.28426079 408.95408121 228.76390816 426.52470436 185.92211914 427.29321289 C156.4623854 427.47233388 127.7165575 420.67406196 102 406 C101.37770508 405.65501465 100.75541016 405.3100293 100.11425781 404.95458984 C60.41707694 382.86356324 30.86675217 345.1070232 18.24609375 301.5234375 C17.82657057 300.01677676 17.41114938 298.50896735 17 297 C16.79648926 296.25782227 16.59297852 295.51564453 16.38330078 294.75097656 C13.60940676 284.49322969 11.85473535 274.69029277 11.796875 264.06640625 C11.79117493 263.23020248 11.78547485 262.39399872 11.77960205 261.53245544 C11.7702069 259.76847576 11.76364007 258.00447896 11.75976562 256.24047852 C11.75013946 253.60074372 11.7190966 250.96181575 11.6875 248.32226562 C11.61800753 237.21252338 12.6362983 226.85193633 15 216 C15.19352051 215.08210693 15.38704102 214.16421387 15.58642578 213.21850586 C22.59969483 181.71157609 39.20490216 148.34653914 64 127 C67.32658768 125.89113744 67.73752439 126.02447122 70.81640625 127.2578125 C71.94792114 127.69794678 71.94792114 127.69794678 73.10229492 128.14697266 C74.32009644 128.63109619 74.32009644 128.63109619 75.5625 129.125 C92.64830497 135.63927695 110.0864126 139.45331953 128 143 C125.06623978 145.23004506 122.08462487 147.20613447 118.9375 149.125 C96.74718611 163.22202965 81.83184956 182.31810249 71 206 C70.49855469 207.0621875 69.99710937 208.124375 69.48046875 209.21875 C59.91023375 231.96157092 59.80611018 257.26343812 65 281 C65.19335938 281.95132812 65.38671875 282.90265625 65.5859375 283.8828125 C70.663434 305.44568724 82.34764867 324.60211623 98 340 C99.32644531 341.32451172 99.32644531 341.32451172 100.6796875 342.67578125 C125.09217373 365.96543799 156.90353192 375.81406884 190.18359375 375.25 C197.3991183 375.01780291 204.01849304 373.89706515 211 372 C212.33980028 371.66779338 213.67964585 371.33576937 215.01953125 371.00390625 C246.9896477 362.69993161 273.29274106 342.40936006 290 314 C300.37209816 294.96671519 305.61868799 275.35419119 305.4375 253.75 C305.43445862 252.9799765 305.43141724 252.209953 305.42828369 251.41659546 C305.36069918 239.84447471 304.67218594 229.03936643 301 218 C300.78569336 217.33097656 300.57138672 216.66195312 300.35058594 215.97265625 C290.74204297 186.37778447 270.72207492 160.19911046 242.90698242 145.64233398 C227.71410966 138.03585786 212.13231607 133.15027831 195.35546875 130.58984375 C194.54106827 130.46325882 193.72666779 130.33667389 192.8875885 130.20625305 C187.57923131 129.3848058 182.26714846 128.58856351 176.95446777 127.79563904 C156.63609218 124.76288858 136.47813853 121.72809977 116.55273438 116.63916016 C114.14120302 116.03535477 111.7252383 115.48074669 109.296875 114.94921875 C81.35852664 108.82506308 56.81159202 97.94025322 36 78 C35.10667969 77.18144531 34.21335938 76.36289062 33.29296875 75.51953125 C14.40569957 57.63606099 3.84627612 32.48548812 0 7 C-0.04436969 4.66708856 -0.0558898 2.33266388 0 0 Z " fill="#FCFCFC" transform="translate(171,184)"/>
<path d="M0 0 C0.89868301 -0.01264893 1.79736603 -0.02529785 2.72328186 -0.03833008 C3.69994308 -0.04590332 4.67660431 -0.05347656 5.68286133 -0.0612793 C7.21172218 -0.0759021 7.21172218 -0.0759021 8.77146912 -0.09082031 C32.04078789 -0.26700876 54.61907584 0.08885434 77.57739258 4.17700195 C78.64940918 4.36423828 79.72142578 4.55147461 80.82592773 4.74438477 C133.23493529 14.16385252 180.86284292 35.17560012 224.57739258 65.17700195 C221.60691716 67.1573189 220.22503989 67.58684173 216.80786133 68.1418457 C215.84823486 68.30031982 214.8886084 68.45879395 213.89990234 68.62207031 C212.34807251 68.86582397 212.34807251 68.86582397 210.76489258 69.11450195 C209.68973389 69.28925049 208.6145752 69.46399902 207.50683594 69.64404297 C200.56498432 70.75577814 193.61211385 71.71725866 186.63989258 72.61450195 C133.78784579 79.49550304 80.27164412 97.27550811 45.57739258 140.17700195 C44.78204102 141.13477539 43.98668945 142.09254883 43.16723633 143.0793457 C35.14411714 152.90024334 28.3406788 163.46400845 21.57739258 174.17700195 C17.45422302 172.8026121 16.52234858 170.03228322 14.51489258 166.42700195 C10.10961742 158.81887956 5.11804689 151.98695461 -0.42260742 145.17700195 C-0.84767578 144.64365234 -1.27274414 144.11030273 -1.71069336 143.56079102 C-22.08563928 118.03461724 -48.49227291 100.6506958 -78.42260742 88.17700195 C-79.56600586 87.69489258 -80.7094043 87.2127832 -81.88745117 86.71606445 C-108.5279932 76.37597768 -138.75039674 72.92149082 -166.95336914 69.4855957 C-172.45438404 68.79810482 -177.93817838 67.98493344 -183.42260742 67.17700195 C-183.42260742 66.51700195 -183.42260742 65.85700195 -183.42260742 65.17700195 C-146.99498686 33.78334905 -93.80819034 15.56358786 -47.42260742 6.17700195 C-46.63144531 6.01119629 -45.8402832 5.84539062 -45.02514648 5.67456055 C-35.07461464 3.60763838 -25.12468824 2.58458189 -14.99804688 1.82250977 C-13.58785278 1.71567871 -13.58785278 1.71567871 -12.14916992 1.60668945 C-11.30950684 1.54723145 -10.46984375 1.48777344 -9.60473633 1.42651367 C-6.25213873 1.04316676 -3.42920364 0.04300004 0 0 Z " fill="#FDFDFD" transform="translate(499.422607421875,160.822998046875)"/>
<path d="M0 0 C4.22353135 3.44765112 8.14362611 7.14925585 12 11 C12.72832031 11.71671875 13.45664062 12.4334375 14.20703125 13.171875 C31.51391378 31.3321541 39.82650069 57.21044532 39.2890625 81.95703125 C37.72519205 108.85166042 26.76037477 133.30857456 7.3359375 151.94921875 C3.11923934 155.65116947 -1.33735068 158.88517117 -6 162 C-6.86753906 162.59683594 -7.73507812 163.19367188 -8.62890625 163.80859375 C-29.58269538 177.19159705 -56.67637965 180.11921519 -80.9296875 176.38671875 C-106.1791504 170.62049332 -128.60436869 154.25099085 -142.66918945 132.67285156 C-146.55022507 126.42253688 -149.36840774 119.86845581 -152 113 C-152.30421875 112.31035156 -152.6084375 111.62070312 -152.921875 110.91015625 C-161.46420041 90.99259138 -160.19039936 64.06075853 -152.3125 44.1875 C-141.74367918 20.04499754 -126.48953873 2.07560794 -103 -10 C-102.08734375 -10.48210937 -101.1746875 -10.96421875 -100.234375 -11.4609375 C-68.06115106 -27.35489544 -28.10117949 -21.36932445 0 0 Z " fill="#FDFDFD" transform="translate(745,358)"/>
<path d="M0 0 C25.02793996 -0.8073529 49.95230384 7.88041816 68.8828125 24.1953125 C69.55699219 24.72511719 70.23117187 25.25492187 70.92578125 25.80078125 C88.06339537 39.65454117 97.62388211 61.08234641 101.8828125 82.1953125 C102.08261719 83.14792969 102.28242188 84.10054688 102.48828125 85.08203125 C104.13769407 98.09769475 103.59814614 111.6111179 99.8828125 124.1953125 C99.5425 125.401875 99.2021875 126.6084375 98.8515625 127.8515625 C94.7115094 141.39065508 88.47581597 153.69332732 78.8828125 164.1953125 C78.42277832 164.70304199 77.96274414 165.21077148 77.48876953 165.73388672 C59.25308152 185.62253447 34.88962055 197.15460441 7.78125 198.41796875 C-19.71597308 199.23406027 -43.67303139 188.78584207 -63.8046875 170.38671875 C-68.08969525 166.3340162 -71.78424094 162.06540514 -75.1171875 157.1953125 C-76.12845703 155.71998047 -76.12845703 155.71998047 -77.16015625 154.21484375 C-91.78079456 131.69412321 -96.71487273 105.08051121 -91.9921875 78.6328125 C-86.16858992 52.27624882 -70.000074 29.36476045 -47.3046875 14.8828125 C-32.83722315 6.01148208 -16.95222867 1.06216972 0 0 Z " fill="#FDFDFD" transform="translate(350.1171875,337.8046875)"/>
<path d="M0 0 C3.76518481 1.2550616 4.08412535 2.386277 6.0625 5.75 C14.15322756 18.83000956 25.05650235 34.26473312 38 43 C36.67766161 47.47720872 34.90340026 51.07341845 32.40234375 55.0078125 C31.68035751 56.1549782 30.95885644 57.30244937 30.23779297 58.45019531 C29.86724792 59.0361145 29.49670288 59.62203369 29.1149292 60.22570801 C27.3169949 63.08693044 25.56712665 65.97692052 23.81640625 68.8671875 C23.11341686 70.02509803 22.41037284 71.1829754 21.70727539 72.34082031 C21.35617706 72.91948853 21.00507874 73.49815674 20.64334106 74.09436035 C19.53598082 75.91868922 18.42713769 77.74211089 17.31811523 79.56542969 C14.17166592 84.742274 11.03094384 89.92107751 7.96875 95.1484375 C7.55036865 95.86016113 7.1319873 96.57188477 6.70092773 97.30517578 C5.64981533 99.10083552 4.6076975 100.90175227 3.56640625 102.703125 C3.04949219 103.46109375 2.53257812 104.2190625 2 105 C1.34 105 0.68 105 0 105 C-1.45005628 102.77890723 -2.76546608 100.56001873 -4.0625 98.25 C-4.95611596 96.69403692 -5.8521332 95.13945151 -6.75 93.5859375 C-7.25660156 92.70905273 -7.76320313 91.83216797 -8.28515625 90.92871094 C-11.27646248 85.81998236 -14.36220449 80.7684769 -17.44262695 75.7131958 C-18.56002428 73.87906372 -19.67578401 72.04394571 -20.79101562 70.20849609 C-23.88634278 65.1147421 -26.98531417 60.02326967 -30.09375 54.9375 C-30.91685791 53.58344957 -31.73979548 52.22929557 -32.5625 50.875 C-33.24441406 49.75867188 -33.92632812 48.64234375 -34.62890625 47.4921875 C-36 45 -36 45 -36 43 C-34.49609375 41.51953125 -34.49609375 41.51953125 -32.4375 39.8125 C-19.40429204 28.64768898 -8.71903748 14.76527479 0 0 Z " fill="#FCFCFC" transform="translate(519,542)"/>
<path d="M0 0 C0.99 0.495 0.99 0.495 2 1 C2.625 3.5625 2.625 3.5625 3 6 C2.01 6 1.02 6 0 6 C0 4.02 0 2.04 0 0 Z " fill="#DCDBDA" transform="translate(170,506)"/>
<path d="M0 0 C1.32 0.66 2.64 1.32 4 2 C1 4 1 4 -1 4 C-0.67 2.68 -0.34 1.36 0 0 Z " fill="#E8E8E8" transform="translate(720,224)"/>
</svg>
